<svg viewBox="0 0 43 41" xmlns="http://www.w3.org/2000/svg">
    <g fill="currentColor" stroke="currentColor">
        <path d="M5.958 7.563A4.964 4.964 0 0 0 1 12.522a4.964 4.964 0 0 0 4.958 4.958 4.964 4.964 0 0 0 4.959-4.958 4.964 4.964 0 0 0-4.959-4.959zm-3.791 4.959A3.796 3.796 0 0 1 5.958 8.73a3.796 3.796 0 0 1 3.792 3.792 3.796 3.796 0 0 1-3.792 3.791 3.796 3.796 0 0 1-3.791-3.791z"/>
        <path d="M37.784 1H18.135a4.583 4.583 0 0 0-4.577 4.578v14.473c-3.848-1.124-8.09-.656-10.459 3.537C1.304 26.767 1.314 30.7 1.322 34.17l.002 5.216a.583.583 0 1 0 1.166 0v-5.218c-.009-3.326-.018-7.095 1.625-10.005 2.405-4.26 6.717-3.761 9.443-2.89a15 15 0 0 1 1.943.773c.649.313 1.322.666 2.016 1.03 2.774 1.453 5.925 3.087 9.064 3.051l9.694.019c.064 0 1.465.028 1.92 1.536.038.128.072.262.095.411.009.056.014.114.017.173a1.4 1.4 0 0 1-.092.583.94.94 0 0 1-.396.476c-.579.342-1.29.501-1.977.656-2.755.618-7.298 1.269-10.099 1.541a30.93 30.93 0 0 1-1.72.12c-.31.012-.616.02-.933.015-2.903-.018-6.09-.39-8.527-.993a.582.582 0 0 0-.626.883c.078.12.197.213.346.25 1.565.387 3.427.682 5.33.854v6.735a.583.583 0 1 0 1.167 0V32.74c.775.05 1.549.078 2.303.083.329.001.658-.004.987-.017.578-.023 1.18-.065 1.786-.124 2.836-.275 7.443-.935 10.242-1.564.74-.166 1.577-.354 2.315-.79.55-.326.904-.872 1.019-1.515a3.393 3.393 0 0 0 2.93-3.356V5.578A4.583 4.583 0 0 0 37.784 1zm3.411 24.457c0 1.084-.78 1.987-1.808 2.182-.462-2.084-2.21-2.657-3.108-2.661l-9.706-.019c-2.871.042-5.864-1.529-8.515-2.918-.705-.37-1.39-.728-2.05-1.046a16.44 16.44 0 0 0-1.284-.547V5.578a3.415 3.415 0 0 1 3.411-3.411h19.649a3.416 3.416 0 0 1 3.411 3.411v19.88z"/>
    </g>
</svg>
