<svg viewBox="0 0 24 24" xmlns="http://www.w3.org/2000/svg">
    <g fill="none" fill-rule="evenodd">
        <path stroke="currentColor" stroke-width="2" stroke-linecap="round" stroke-linejoin="round" d="M20 9V6H2v12h12m3-6h5m-5 3h5m-5 3h5"/>
        <path d="M13.532 15.074c0 .38-.306.686-.686.686h-4.16A.685.685 0 0 1 8 15.074c0-.401.306-.613.802-.771.159-.053.528-.274.528-1.193a.768.768 0 0 0-.074-.306h-.443a.588.588 0 0 1-.591-.58.59.59 0 0 1 .591-.592h.169c-.127-.412-.254-.824-.254-1.288C8.728 9.13 9.52 8 11.347 8c.475 0 .94.053 1.415.211.37.116.56.317.56.655 0 .39-.265.686-.645.686-.105 0-.2-.021-.401-.074-.222-.053-.465-.116-.802-.116-1.025 0-1.289.549-1.289 1.024 0 .401.127.824.275 1.246h1.34a.59.59 0 0 1 .592.591c0 .317-.264.58-.591.58h-1.077a.98.98 0 0 1 .053.307 1.7 1.7 0 0 1-.507 1.277h2.576c.38 0 .686.307.686.687z" fill="currentColor"/>
    </g>
</svg>
